<svg xmlns="http://www.w3.org/2000/svg" width="1200" height="620" viewBox="0 0 1200 620"><rect width="1200" height="620" rx="28" fill="#0a0a0a"/><rect x="8" y="8" width="1184" height="604" rx="28" fill="none" stroke="#ef4444" stroke-width="5"/><text x="600" y="105" text-anchor="middle" fill="#ff4048" font-family="Arial,Helvetica,sans-serif" font-size="58" font-weight="700">Most Used Languages</text><defs><clipPath id="bar"><rect x="80" y="160" width="1040" height="34" rx="17"/></clipPath></defs><g clip-path="url(#bar)"><rect x="80" y="160" width="153" height="34" fill="#f97316"/><rect x="233" y="160" width="153" height="34" fill="#3b82c4"/><rect x="386" y="160" width="149" height="34" fill="#f5df4d"/><rect x="535" y="160" width="153" height="34" fill="#7139a8"/><rect x="688" y="160" width="153" height="34" fill="#f04b2b"/><rect x="841" y="160" width="144" height="34" fill="#58b947"/><rect x="985" y="160" width="135" height="34" fill="#65b8e8"/></g><g font-family="Arial,Helvetica,sans-serif" font-size="30" fill="#f3f4f6"><circle cx="105" cy="270" r="20" fill="#f97316"/><text x="145" y="281">HTML 95%</text><circle cx="105" cy="345" r="20" fill="#3b82c4"/><text x="145" y="356">CSS 95%</text><circle cx="105" cy="420" r="20" fill="#f5df4d"/><text x="145" y="431">JavaScript 93%</text><circle cx="105" cy="495" r="20" fill="#7139a8"/><text x="145" y="506">Python 95%</text><circle cx="665" cy="270" r="20" fill="#f04b2b"/><text x="705" y="281">Flask 95%</text><circle cx="665" cy="345" r="20" fill="#58b947"/><text x="705" y="356">Jupyter Notebook 90%</text><circle cx="665" cy="420" r="20" fill="#65b8e8"/><text x="705" y="431">Other (C / C++ / Other Technologies) 87%</text></g></svg>